<svg width="309" height="324" xmlns="http://www.w3.org/2000/svg" xmlns:xlink="http://www.w3.org/1999/xlink"><defs><linearGradient x1="69.887%" y1="74.075%" x2="-2.918%" y2="0%" id="a"><stop stop-color="#FFF" stop-opacity="0" offset="0%"></stop><stop stop-color="#A4B0D5" offset="100%"></stop></linearGradient><linearGradient x1="26.21%" y1="85.832%" x2="15.979%" y2="56.527%" id="f"><stop stop-color="#C4C8DE" stop-opacity="0" offset="0%"></stop><stop stop-color="#6B798E" offset="100%"></stop></linearGradient><linearGradient x1="50%" y1="0%" x2="36.307%" y2="90.052%" id="j"><stop stop-color="#F6F8FA" offset="0%"></stop><stop stop-color="#E9EDF3" offset="100%"></stop></linearGradient><linearGradient x1="46.994%" y1="5.814%" x2="38.414%" y2="92.609%" id="k"><stop stop-color="#7B86A4" offset="0%"></stop><stop stop-color="#454E6B" offset="100%"></stop></linearGradient><linearGradient x1="42.841%" y1="0%" x2="50%" y2="133.543%" id="m"><stop stop-color="#DFE2EA" offset="0%"></stop><stop stop-color="#CBD0DE" offset="100%"></stop></linearGradient><path d="M17 3h216.57a2 2 0 0 1 1.586.783L342.944 144.28a2 2 0 0 1 .413 1.217V322.89H111.5l-95.938-99.31a2 2 0 0 1-.562-1.39V5a2 2 0 0 1 2-2z" id="b"></path><pattern id="c" width="512" height="512" x="-497" y="-509" patternUnits="userSpaceOnUse"><use xlink:href="#a"></use></pattern><rect id="e" x="12" width="220" height="220" rx="4"></rect><filter x="-8.9%" y="-7%" width="126.8%" height="126.8%" filterUnits="objectBoundingBox" id="d"><feOffset dx="10" dy="14" in="SourceAlpha" result="shadowOffsetOuter1"></feOffset><feGaussianBlur stdDeviation="7.5" in="shadowOffsetOuter1" result="shadowBlurOuter1"></feGaussianBlur><feColorMatrix values="0 0 0 0 0.230538538 0 0 0 0 0.370571982 0 0 0 0 0.482993197 0 0 0 0.0403645833 0" in="shadowBlurOuter1"></feColorMatrix></filter><path d="M29 15h187a2 2 0 0 1 2 2v188a2 2 0 0 1-2 2H29a2 2 0 0 1-2-2V17a2 2 0 0 1 2-2z" id="g"></path><pattern id="h" width="512" height="512" x="-485" y="-497" patternUnits="userSpaceOnUse"><use xlink:href="#b"></use></pattern><path d="M20 0h193v145.066l-3.973-7.038-3.66 12.73-5.797-6.235-5.01 2.543-14.85-2.543L176.964 193l-6.358.107-4.634-1.65L156.75 193l-6.365-2.602L140.77 193l-5-60.01-5.328 60.01-8.084-1.599-7.5 2.373L105.02 191l-15.083 2-4.447-3.069L80.746 193H70.272V60c-2.672 38.654-6.525 62.984-11.56 72.99-3.228 6.416-8.428 8.157-11.83 9.646-4.56 1.996-8.005 2.43-19.365 2.43-13.225 0-22.12-7.012-26.684-21.037 5.096-3.554 9.24-8.946 12.429-16.174C16.45 100.626 18.697 84.675 20 60V0z" id="i"></path></defs><g fill="none" fill-rule="evenodd"><g transform="translate(0 1)"><use fill="url(#a)" xlink:href="#b"></use><use fill-opacity=".031" fill="url(#c)" xlink:href="#b"></use></g><g transform="translate(0 1)"><use fill="#000" filter="url(#d)" xlink:href="#e"></use><use fill="#FFF" xlink:href="#e"></use></g><g opacity=".487" transform="translate(0 1)"><use fill="url(#f)" xlink:href="#g"></use><use fill-opacity=".078" fill="url(#h)" xlink:href="#g" style="mix-blend-mode: luminosity;"></use></g><g transform="translate(6 15)"><mask id="l" fill="#fff"><use xlink:href="#i"></use></mask><use fill="url(#j)" xlink:href="#i"></use><text fill="url(#k)" opacity=".2" mask="url(#l)" font-family="DINCondensed-Bold, DIN Condensed" font-size="93" font-style="condensed" font-weight="bold" letter-spacing="16.043"><tspan x="47.042" y="98">404</tspan></text></g><path d="M.936 129.557h51.327c2.589 12.975 6.798 18.712 12.627 17.212-3.795 7.72-11.708 13.727-28.537 13.727s-23.798-6.424-27.963-10.918c-2.777-2.996-5.261-9.67-7.454-20.021z" fill="url(#m)" transform="translate(0 1)"></path></g></svg>