<svg xmlns="http://www.w3.org/2000/svg" id="logo" width="112" height="15" fill="currentColor">
  <title>Jan Czizikow</title>
  <path d="M4.122 14.288c-.732 0-1.401-.147-2.007-.441S.954 13.034.45 12.29l1.548-1.188c.264.384.558.717.882.999s.738.423 1.242.423c.696 0 1.176-.234 1.44-.702s.396-1.14.396-2.016V1.58h2.16v7.938c0 .492-.03 1.017-.09 1.575s-.219 1.074-.477 1.548-.654.867-1.188 1.179-1.281.468-2.241.468zm12.276-.99c-.3.228-.681.435-1.143.621s-1.059.279-1.791.279c-.396 0-.771-.054-1.125-.162s-.66-.27-.918-.486-.465-.492-.621-.828-.234-.732-.234-1.188c0-.528.105-.972.315-1.332s.486-.651.828-.873.726-.384 1.152-.486.849-.153 1.269-.153c.408 0 .792.03 1.152.09s.678.132.954.216V8.33c0-.576-.177-.972-.531-1.188s-.777-.324-1.269-.324c-.24 0-.495.024-.765.072s-.537.108-.801.18-.51.156-.738.252-.426.192-.594.288l-.594-1.404c.504-.276 1.083-.495 1.737-.657s1.281-.243 1.881-.243c.48 0 .945.048 1.395.144s.846.267 1.188.513.618.582.828 1.008.315.969.315 1.629v3.51c0 .264.024.564.072.9s.12.666.216.99h-2.052zm-.162-3.096c-.216-.06-.465-.117-.747-.171s-.579-.081-.891-.081c-.264 0-.519.027-.765.081s-.462.141-.648.261-.333.279-.441.477-.162.441-.162.729c0 .444.129.798.387 1.062s.651.396 1.179.396c.444 0 .837-.084 1.179-.252s.645-.36.909-.576zM27.504 9.05c0-.672-.147-1.176-.441-1.512s-.759-.504-1.395-.504c-.528 0-.987.093-1.377.279s-.717.393-.981.621V14h-2.07V5.468h1.98v1.008c.288-.288.663-.555 1.125-.801s1.035-.369 1.719-.369c.408 0 .822.048 1.242.144s.798.27 1.134.522.609.6.819 1.044.315 1.014.315 1.71V14h-2.07zM47.7 12.11c-.552.624-1.221 1.14-2.007 1.548s-1.725.612-2.817.612c-.864 0-1.665-.15-2.403-.45s-1.38-.729-1.926-1.287-.975-1.239-1.287-2.043-.468-1.71-.468-2.718c0-.984.156-1.875.468-2.673s.741-1.476 1.287-2.034 1.188-.99 1.926-1.296 1.539-.459 2.403-.459c1.104 0 2.04.189 2.808.567s1.44.885 2.016 1.521l-1.566 1.35c-.348-.444-.774-.828-1.278-1.152S43.71 3.11 42.93 3.11c-.588 0-1.119.114-1.593.342s-.882.549-1.224.963-.606.906-.792 1.476-.279 1.191-.279 1.863.093 1.296.279 1.872.45 1.077.792 1.503.75.759 1.224.999 1.005.36 1.593.36c.42 0 .795-.048 1.125-.144s.627-.222.891-.378.498-.333.702-.531.396-.399.576-.603zm1.638-6.642h7.38v.126l-4.554 6.822h4.626V14h-7.794v-.144l4.5-6.804h-4.158zm11.664 0V14h-2.088V5.468zm-2.286-2.7c0-.336.12-.618.36-.846s.534-.342.882-.342c.336 0 .621.114.855.342s.351.51.351.846-.117.624-.351.864-.519.36-.855.36c-.348 0-.642-.12-.882-.36s-.36-.528-.36-.864zm4.752 2.7h7.38v.126l-4.554 6.822h4.626V14h-7.794v-.144l4.5-6.804h-4.158zm11.664 0V14h-2.088V5.468zm-2.286-2.7c0-.336.12-.618.36-.846s.534-.342.882-.342c.336 0 .621.114.855.342s.351.51.351.846-.117.624-.351.864-.519.36-.855.36c-.348 0-.642-.12-.882-.36s-.36-.528-.36-.864zM80.19.824v7.974l3.546-3.33h2.538l-4.14 4.05L86.49 14h-2.592l-3.708-3.888V14h-2.07V.824zm12.114 4.482c.72 0 1.365.114 1.935.342s1.053.54 1.449.936.699.867.909 1.413.315 1.137.315 1.773c0 .624-.105 1.209-.315 1.755s-.513 1.02-.909 1.422-.879.717-1.449.945-1.215.342-1.935.342-1.365-.114-1.935-.342-1.053-.543-1.449-.945-.699-.876-.909-1.422-.315-1.131-.315-1.755c0-.636.105-1.227.315-1.773s.513-1.017.909-1.413.879-.708 1.449-.936 1.215-.342 1.935-.342zm0 1.548c-.852 0-1.482.27-1.89.81s-.612 1.242-.612 2.106c0 .42.051.81.153 1.17s.258.672.468.936.471.471.783.621.678.225 1.098.225c.432 0 .804-.075 1.116-.225s.57-.357.774-.621.357-.576.459-.936.153-.75.153-1.17c0-.852-.204-1.551-.612-2.097s-1.038-.819-1.89-.819zM107.46 9.68l.396.954.288-.954 1.584-4.212h2.142l-3.6 9.018h-.144l-2.574-4.788-.324-.72-.306.72-2.574 4.788h-.162l-3.6-9.018h2.16l1.566 4.212.288.936.396-.918 2.178-4.374h.126z"/>
</svg>