<?xml version="1.0" encoding="utf-8"?>
<!-- Generator: Adobe Illustrator 20.0.0, SVG Export Plug-In . SVG Version: 6.00 Build 0)  -->
<svg version="1.1" id="Layer_1" xmlns="http://www.w3.org/2000/svg" xmlns:xlink="http://www.w3.org/1999/xlink" x="0px" y="0px"
	 viewBox="0 0 72 72" style="enable-background:new 0 0 72 72;" xml:space="preserve">
<g>
	<path d="M10.4,52.7l6.5-2.8c0.6,1.3,1.5,2.3,2.7,3c1.2,0.7,2.6,1.1,4.1,1.1c1.1,0,2.2-0.3,3.2-0.8c1-0.5,1.9-1.2,2.5-2.1
		c0.9-1.2,1.4-3.1,1.4-5.8V9.1h7.3v35.8c0,3.7-0.6,6.6-1.7,8.7c-1.3,2.2-3,4-5.3,5.3c-2.3,1.3-4.7,2-7.4,2c-3,0-5.7-0.7-8.1-2.2
		C13.2,57.3,11.5,55.3,10.4,52.7z"/>
	<path d="M52.8,59.4c-1-1-1.5-2.2-1.5-3.6c0-1.4,0.5-2.6,1.5-3.6c1-1,2.2-1.5,3.6-1.5c1.4,0,2.6,0.5,3.6,1.5c1,1,1.5,2.2,1.5,3.6
		c0,1.4-0.5,2.6-1.5,3.6c-1,1-2.2,1.5-3.6,1.5C55,60.9,53.8,60.4,52.8,59.4z"/>
</g>
</svg>
