<?xml version="1.0" standalone="no"?>
<!DOCTYPE svg PUBLIC "-//W3C//DTD SVG 20010904//EN"
 "http://www.w3.org/TR/2001/REC-SVG-20010904/DTD/svg10.dtd">
<svg version="1.0" xmlns="http://www.w3.org/2000/svg"
 width="260.000000pt" height="260.000000pt" viewBox="0 0 260.000000 260.000000"
 preserveAspectRatio="xMidYMid meet">
<metadata>
Created by potrace 1.11, written by Peter Selinger 2001-2013
</metadata>
<g transform="translate(0.000000,260.000000) scale(0.100000,-0.100000)"
fill="#000000" stroke="none">
<path d="M1422 1633 c0 -859 -1 -872 -64 -1001 -35 -73 -85 -112 -170 -132
-64 -16 -171 -7 -232 20 -46 19 -139 104 -202 182 l-29 37 -115 -91 c-63 -49
-123 -96 -133 -103 -18 -13 -17 -16 21 -68 90 -122 222 -212 377 -258 135 -41
410 -31 545 18 63 23 157 87 211 145 73 77 131 209 153 348 12 76 18 384 20
1017 l1 663 -191 0 -191 0 -1 -777z"/>
</g>
</svg>
