<svg xmlns="http://www.w3.org/2000/svg" width="119.6" height="14.4" viewBox="0 0 119.6 14.4"><g fill="#313237"><path d="M5.6 10.1c0 .7-.1 1.3-.4 1.6-.2.3-.4.4-.7.6s-.6.2-.9.2c-.4 0-.8-.1-1.1-.3s-.6-.5-.7-.8l-1.8.7c.3.7.8 1.3 1.4 1.7s1.4.6 2.2.6c.7 0 1.4-.2 2-.5s1.1-.9 1.5-1.5c.3-.6.5-1.4.5-2.4V.2h-2v9.9zM17.8 5.7c-.9-.7-1.8-1.1-3-1.1-.9 0-1.6.2-2.3.6-.7.4-1.3 1-1.8 1.8S10 8.6 10 9.5s.2 1.8.7 2.5 1 1.3 1.7 1.8c.7.4 1.5.6 2.4.6 1.2 0 2.1-.4 2.9-1.1v.9h1.8V4.8h-1.8v.9zm-.1 5.6c-.3.4-.7.8-1.2 1s-.9.4-1.4.4c-.9 0-1.6-.3-2.2-.9s-.9-1.4-.9-2.3c0-.8.3-1.6.8-2.2s1.3-.9 2.2-.9c.5 0 1.1.1 1.5.4s.9.6 1.2 1v3.5zM29.6 5c-.6-.3-1.2-.4-1.9-.4-.6 0-1.2.1-1.6.3s-.9.5-1.2.8v-.9H23v9.4h1.9V7.7c.7-.9 1.6-1.3 2.7-1.3.4 0 .7.1 1.1.2s.6.4.8.7c.4.5.6 1.2.6 2.2v4.7H32V9.6c0-1.4-.3-2.6-.9-3.3-.4-.6-.9-1-1.5-1.3zM49.2 11.9c-.7.4-1.5.6-2.3.6-1 0-1.9-.2-2.7-.7s-1.4-1.1-1.9-1.9-.7-1.7-.7-2.8c0-1.5.5-2.8 1.5-3.8s2.2-1.5 3.6-1.5c.7 0 1.4.1 2.1.4s1.2.8 1.6 1.3l1.3-1.3c-.6-.7-1.4-1.2-2.3-1.6S47.7 0 46.7 0c-1.3 0-2.5.3-3.6 1s-1.9 1.5-2.5 2.6-.9 2.3-.9 3.6c0 1 .2 2 .6 2.9s.9 1.7 1.5 2.3 1.4 1.1 2.3 1.5 1.9.5 2.9.5c1.1 0 2.1-.2 3.1-.7s1.8-1.1 2.4-1.9l-1.4-1.3c-.7.6-1.3 1-1.9 1.4zM61.3 6V4.8h-7.5v1.7h4.8L53.5 13v1.2h8.2v-1.7h-5.6M63.8 4.8h1.9v9.4h-1.9zM64.7.2c-.4 0-.6.1-.9.4s-.4.5-.4.9.1.6.4.9.5.4.9.4.6-.1.9-.4.4-.6.4-.9-.1-.6-.4-.9-.5-.4-.9-.4zM76 6V4.8h-7.5v1.7h4.8L68.2 13v1.2h8.2v-1.7h-5.6M78.5 4.8h1.9v9.4h-1.9zM79.4.2c-.4 0-.6.1-.9.4s-.4.5-.4.9.1.6.4.9.5.4.9.4.6-.1.9-.4.4-.5.4-.9-.1-.6-.4-.9-.5-.4-.9-.4zM92.3 4.8h-2.7l-3.9 3.6V0h-1.9v14.2h1.9V9.6l4.6 4.6h2.6L87.6 9M98.2 4.6c-1.4 0-2.6.5-3.5 1.4s-1.4 2.1-1.4 3.5.5 2.6 1.4 3.5 2.1 1.4 3.5 1.4 2.6-.5 3.5-1.4 1.4-2.1 1.4-3.5-.5-2.6-1.4-3.5-2.1-1.4-3.5-1.4zm2.1 7.1c-.6.6-1.3.9-2.1.9s-1.6-.3-2.1-.9-.8-1.3-.8-2.2.3-1.6.8-2.2 1.3-.9 2.1-.9 1.6.3 2.1.9.8 1.3.8 2.2-.2 1.6-.8 2.2zM117.7 4.8l-2.6 6.4-2.6-6.4h-1.3l-2.6 6.4-2.6-6.4h-1.9l3.8 9.4h1.3l2.7-6.6 2.6 6.6h1.3l3.8-9.4"/></g></svg>